Title                            : 13
Year                             : 2010
Genre                            : Drama | Thriller
iMDB URL                         : http://www.imdb.com/title/tt0798817/

Complete name                    : 13.2010.BRRIP.720P.H264-ZEKTORM.mp4
Format                           : MPEG-4
Format profile                   : Base Media
Codec ID                         : isom
File size                        : 2.05 GiB
Duration                         : 1h 33mn
Overall bit rate                 : 3146 Kbps
Subtitles                        : English (Format: srt)

Video
ID                               : 1
Format                           : AVC
Format/Info                      : Advanced Video Codec
Format profile                   : High@L4.0
Format settings, CABAC           : Yes
Format settings, ReFrames        : 5 frames
Codec ID                         : avc1
Codec ID/Info                    : Advanced Video Coding
Duration                         : 1h 33mn
Bit rate mode                    : Variable
Bit rate                         : 2698 Kbps
Width                            : 1280 pixels
Height                           : 544 pixels
Display aspect ratio             : 2.35
Frame rate mode                  : Constant
Frame rate                       : 25.000 fps
Resolution                       : 24 bits
Colorimetry                      : 4:2:0
Scan type                        : Progressive
Bits/(Pixel*Frame)               : 0.155
Stream size                      : 1.76 GiB (86%)
Title                            : Video
Writing library                  : x264

Audio
ID                               : 2
Format                           : AAC
Format/Info                      : Advanced Audio Codec
Format version                   : Version 4
Format profile                   : LC
Format settings, SBR             : No
Codec ID                         : 40
Duration                         : 1h 33mn
Bit rate mode                    : Variable
Bit rate                         : 446 Kbps
Maximum bit rate                 : 528 Kbps
Channel(s)                       : 6 channels
Channel positions                : Front: L C R, Rear: L R, LFE
Sampling rate                    : 48.0 KHz
Resolution                       : 16 bits
Stream size                      : 297 MiB (14%)
Language                         : English

Notes                            : The source has a few glitches.


Screenshots:
 
http://img218.imageshack.us/img218/5080/snap131z.png
 
http://img156.imageshack.us/img156/6704/snap132k.png
 
http://img408.imageshack.us/img408/7176/snap133.png
 
http://img684.imageshack.us/img684/3507/snap134.png


